<svg xmlns="http://www.w3.org/2000/svg" viewBox="0 0 64 64">
  <rect width="64" height="64" rx="14" fill="#111110"/>
  <g transform="translate(5.731 44.931) scale(0.01776 -0.01776)" fill="#fbfbf8">
    <path d="M358 350 553 1101 414 1091Q458 991 500.0 893.0Q542 795 580.5 703.0Q619 611 652.5 530.5Q686 450 712.5 384.5Q739 319 756 275Q779 232 789.0 190.0Q799 148 797 100Q796 51 820.5 25.5Q845 0 891 0H1244Q1294 0 1313.5 39.5Q1333 79 1311 126L1253 288Q1237 326 1236.0 355.0Q1235 384 1246 427L1329 801Q1346 867 1369.0 911.5Q1392 956 1428.5 991.0Q1465 1026 1521 1061Q1607 1114 1647.5 1171.0Q1688 1228 1689 1298Q1690 1375 1641.5 1415.5Q1593 1456 1522 1456Q1429 1456 1364.5 1390.0Q1300 1324 1265 1190L1050 301L1198 368Q1166 442 1134.5 513.5Q1103 585 1071.5 657.0Q1040 729 1007.5 803.0Q975 877 942.0 954.5Q909 1032 875.0 1114.5Q841 1197 805 1287Q775 1343 738.0 1371.5Q701 1400 629 1400H354Q307 1400 285.0 1376.5Q263 1353 265.5 1320.0Q268 1287 296 1258L340 1165Q368 1134 372.0 1088.5Q376 1043 361 993L202 366Q180 280 148.5 226.5Q117 173 80 157L43 141Q-13 115 -13 65Q-13 37 5.0 18.5Q23 0 66 0H407Q441 0 462.5 17.5Q484 35 484 68Q484 91 471.0 107.0Q458 123 439 133L415 144Q356 171 348.0 224.0Q340 277 358 350Z"/>
    <path d="M2278 1120Q2265 1069 2247.0 997.0Q2229 925 2208.0 842.5Q2187 760 2165.5 675.0Q2144 590 2124.0 511.5Q2104 433 2088.0 370.5Q2072 308 2062 271Q2050 225 2062.5 193.5Q2075 162 2106.5 146.5Q2138 131 2180 131Q2280 131 2342.5 188.0Q2405 245 2426 363Q2446 476 2401.0 532.0Q2356 588 2261 588H2003L2038 701H2261Q2348 701 2410.0 749.0Q2472 797 2509.0 880.5Q2546 964 2555 1070Q2565 1171 2529.5 1220.5Q2494 1270 2432 1270Q2368 1270 2334.5 1236.5Q2301 1203 2278 1120ZM1847 1400H2502Q2763 1400 2873.5 1306.5Q2984 1213 2969 1044Q2959 936 2890.5 847.5Q2822 759 2699.5 706.0Q2577 653 2406 653L2397 668Q2578 668 2685.0 629.0Q2792 590 2835.0 519.5Q2878 449 2866 352Q2844 185 2680.0 92.5Q2516 0 2210 0H1540Q1493 0 1477.0 18.5Q1461 37 1461 65Q1461 91 1476.5 110.5Q1492 130 1518 141L1563 155Q1587 165 1596.0 181.5Q1605 198 1615 230Q1624 257 1639.5 313.5Q1655 370 1675.0 445.5Q1695 521 1717.0 605.0Q1739 689 1760.5 772.0Q1782 855 1800.5 927.0Q1819 999 1832.0 1049.5Q1845 1100 1849 1119Q1864 1180 1869.5 1207.0Q1875 1234 1839 1250L1800 1263Q1777 1274 1766.0 1288.0Q1755 1302 1755 1323Q1755 1357 1778.5 1378.5Q1802 1400 1847 1400Z"/>
  </g>
</svg>
